<svg xmlns="http://www.w3.org/2000/svg" width="199.66" height="199.93" viewBox="0 0 52.83 52.9"><path fill="#fff" d="M29.73 52.57c-.26-.2-.93-1.41-1.48-2.71-1.1-2.57-1.42-2.93-2.42-2.68-.51.13-.89.66-1.67 2.36-1.2 2.59-1.6 3.11-2.4 3.11-1.1 0-1.35-.58-1.51-3.48-.13-2.38-.23-2.78-.73-3.2-.32-.25-.7-.46-.84-.46s-1.25.95-2.46 2.12c-1.22 1.16-2.38 2.11-2.59 2.11-.52 0-1.25-.86-1.25-1.49 0-.28.3-1.56.67-2.84 1.12-3.84.46-4.31-3.47-2.54-2.15.98-2.6 1.1-3.16.83-1.08-.49-.85-1.45.93-3.9 1.72-2.37 1.91-3.07 1-3.66-.5-.3-1.06-.33-3.2-.11-2.9.29-3.27.22-3.6-.64-.33-.89.05-1.37 2.2-2.83 1.07-.72 2.14-1.5 2.38-1.74 1.1-1.1.16-1.97-2.97-2.78C.38 27.33-.28 26.82.1 25.72c.23-.64.53-.79 2.97-1.42 1.5-.4 2.9-.85 3.1-1.03.77-.63.46-1.54-.84-2.44-2.35-1.62-3.8-2.85-3.8-3.21 0-.2.22-.64.5-.97.48-.6.5-.6 3.35-.3 2.56.29 2.9.27 3.34-.12.27-.24.48-.64.48-.89 0-.24-.7-1.5-1.58-2.8-.88-1.29-1.59-2.53-1.59-2.77 0-.48.8-1.3 1.27-1.3.17 0 1.43.56 2.8 1.24 2.22 1.1 2.59 1.2 3.19.93.84-.38.86-.96.13-3.82-.68-2.68-.61-3.42.36-3.76.68-.24.87-.12 2.91 1.91 1.2 1.2 2.37 2.17 2.6 2.17.88 0 1.26-.89 1.54-3.7C21.13.59 21.4 0 22.44 0c.67 0 1.17.71 2.24 3.23 1.48 3.46 2.38 3.5 3.98.14C29.95.65 30.26.27 31.2.27c1 0 1.19.46 1.38 3.53.09 1.44.3 2.78.46 2.98.68.82 1.61.4 3.7-1.62 1.12-1.1 2.18-1.98 2.35-1.98.17 0 .54.12.82.27.7.38.66 1.39-.2 4.23-.68 2.3-.68 2.38-.21 2.9.66.74 1.06.68 3.67-.53 2.43-1.12 3.04-1.25 3.55-.74.64.64.3 1.64-1.3 3.84-1.28 1.78-1.57 2.35-1.44 2.88.23.9.9 1.09 3.14.86 3.25-.32 3.57-.29 4.05.44.38.6.39.72.03 1.27-.22.34-1.35 1.24-2.52 2-1.16.77-2.17 1.6-2.23 1.85-.25.92.26 1.59 1.44 1.9 3.93 1.02 4.7 1.33 4.86 1.96.3 1.24-.22 1.63-3.05 2.28-4.1.92-4.48 1.93-1.54 3.95 3.15 2.17 3.63 2.89 2.59 3.84-.48.43-.74.45-3.34.15-2.55-.28-2.85-.27-3.3.14-.28.25-.5.65-.5.88 0 .24.7 1.49 1.58 2.78.87 1.29 1.59 2.56 1.59 2.83s-.31.69-.69.93c-.67.44-.74.42-3.3-.83-2.3-1.14-2.68-1.25-3.28-.98-.84.38-.87 1.09-.13 3.74.71 2.56.62 3.5-.36 3.84-.7.25-.86.14-2.88-1.91-3.1-3.16-3.7-2.93-4.14 1.52-.21 2.1-.39 2.85-.74 3.11-.58.43-.93.42-1.53-.01zm.75-10.23c1.12-.29 2.78-.91 3.68-1.39a20.16 20.16 0 0 0 6.23-5.87c1.16-2.37 2.24-4.33 2.02-6.9l-7.43-.07c-6.82-.07-7.46-.03-7.85.4-.77.86-7.08 12.01-7.08 12.51 0 1.57 6.34 2.37 10.43 1.32zm-9.73-9.13c1.96-3.4 3.53-6.38 3.53-6.75 0-1.03-6.91-12.82-7.57-12.91-.74-.11-3.68 3.05-4.8 5.16a16.98 16.98 0 0 0-.02 15.46c1.12 2.1 4.08 5.3 4.8 5.2.39-.06 1.5-1.76 4.06-6.16zm21.18-12.13A17 17 0 0 0 30.1 10.42c-3.53-.89-9.8-.02-10 1.38-.08.5 6.05 11.48 7.03 12.61.38.43 1.02.46 7.84.4l7.43-.07c.19-1.27-.1-2.6-.48-3.66z"/></svg>